# Blender v2.74 (sub 0) OBJ File: ''
# www.blender.org
mtllib untitled-scene.mtl
o Box
v 0.500000 0.500000 0.500000
v -0.500000 0.500000 0.500000
v 0.500000 -0.500000 0.500000
v -0.500000 -0.500000 0.500000
v 0.500000 0.500000 -0.500000
v 0.500000 -0.500000 -0.500000
v -0.500000 0.500000 -0.500000
v -0.500000 -0.500000 -0.500000
vt 0.498758 0.655791
vt 0.252080 0.655803
vt 0.498887 0.334652
vt 0.251519 0.334652
vt 0.753213 0.656024
vt 0.753161 0.334759
vt 1.000000 0.655929
vt 0.999871 0.335454
vt 0.000000 0.656216
vt 0.000000 0.334973
vt 0.499284 1.000000
vt 0.252261 0.999813
vt 0.498887 0.000000
vt 0.251519 0.000000
vn 0.000000 0.000000 1.000000
vn 1.000000 0.000000 0.000000
vn 0.000000 0.000000 -1.000000
vn -1.000000 0.000000 0.000000
vn 0.000000 1.000000 0.000000
vn 0.000000 -1.000000 0.000000
usemtl BoxDefault
s off
f 1/1/1 2/2/1 3/3/1
f 2/2/1 4/4/1 3/3/1
f 5/5/2 1/1/2 6/6/2
f 1/1/2 3/3/2 6/6/2
f 7/7/3 5/5/3 8/8/3
f 5/5/3 6/6/3 8/8/3
f 2/2/4 7/9/4 4/4/4
f 7/9/4 8/10/4 4/4/4
f 5/11/5 7/12/5 1/1/5
f 7/12/5 2/2/5 1/1/5
f 3/3/6 4/4/6 6/13/6
f 4/4/6 8/14/6 6/13/6
